<?xml version="1.0" encoding="UTF-8" standalone="no"?>
<!-- Created with Inkscape (http://www.inkscape.org/) -->

<svg
   xmlns:dc="http://purl.org/dc/elements/1.1/"
   xmlns:cc="http://creativecommons.org/ns#"
   xmlns:rdf="http://www.w3.org/1999/02/22-rdf-syntax-ns#"
   xmlns:svg="http://www.w3.org/2000/svg"
   xmlns="http://www.w3.org/2000/svg"
   xmlns:sodipodi="http://sodipodi.sourceforge.net/DTD/sodipodi-0.dtd"
   xmlns:inkscape="http://www.inkscape.org/namespaces/inkscape"
   width="209.899mm"
   height="246.84143mm"
   viewBox="0 0 209.899 246.84143"
   version="1.1"
   id="svg8"
   inkscape:version="0.92.4 (5da689c313, 2019-01-14)"
   sodipodi:docname="PGBlck.svg">
  <defs
     id="defs2" />
  <sodipodi:namedview
     id="base"
     pagecolor="#ffffff"
     bordercolor="#666666"
     borderopacity="1.0"
     inkscape:pageopacity="0.0"
     inkscape:pageshadow="2"
     inkscape:zoom="0.5"
     inkscape:cx="225.43384"
     inkscape:cy="618.35332"
     inkscape:document-units="mm"
     inkscape:current-layer="layer1"
     showgrid="false"
     inkscape:window-width="1920"
     inkscape:window-height="1017"
     inkscape:window-x="1432"
     inkscape:window-y="-8"
     inkscape:window-maximized="1" />
  <metadata
     id="metadata5">
    <rdf:RDF>
      <cc:Work
         rdf:about="">
        <dc:format>image/svg+xml</dc:format>
        <dc:type
           rdf:resource="http://purl.org/dc/dcmitype/StillImage" />
        <dc:title></dc:title>
      </cc:Work>
    </rdf:RDF>
  </metadata>
  <g
     inkscape:label="Layer 1"
     inkscape:groupmode="layer"
     id="layer1"
     transform="translate(-0.1,-50.158656)">
    <path
       style="fill:#000000;stroke-width:0.2285814"
       d="M 1.3020638,296.86248 C 0.6665516,296.73991 0.1,295.96289 0.1,295.2138 c 0,-1.27335 4.8439296,-34.65483 5.0678576,-34.92466 0.1335311,-0.52815 0.6173452,-0.54108 1.0751577,-0.51665 0.5728772,-0.0467 15.1571117,-0.24 39.6893927,-0.267 21.371352,-0.0242 52.589031,-0.13014 69.372602,-0.23704 16.7836,-0.10692 30.94124,-0.19304 31.46144,-0.19168 1.90418,0.005 1.67691,0.80185 4.20707,-14.7427 1.24813,-7.66819 2.63166,-16.15368 3.07451,-18.85665 0.87588,-5.34626 0.94176,-6.16867 0.52728,-6.58315 -0.20787,-0.20787 -4.05007,-0.27429 -15.89373,-0.27429 -13.15141,0 -14.7666,0.0108 -15.56301,-0.11149 -0.80274,-0.25082 -1.88463,-0.82125 -1.5209,-3.23291 0.33272,-2.20608 1.11011,-6.18369 2.47867,-13.45625 0.68606,-3.6459 1.47934,-7.91465 1.76284,-9.48614 0.53317,-2.99472 1.00001,-3.01411 2.97279,-3.10383 4.17596,0.091 13.88375,0.15875 31.45486,-0.008 l 33.25581,-0.31568 c 1.57149,0.10555 1.68443,1.38215 1.5573,2.23727 0,1.16676 -14.53114,102.97607 -14.86111,104.12113 -0.23325,0.80011 -0.53986,1.10684 -1.22615,1.38045 -0.74322,0.32797 -1.63896,0.37803 -88.831605,0.34816 -48.590692,-0.0162 -88.577246,-0.0747 -88.8590112,-0.12903 z m 5.491928,-48.00102 c -0.08372,-0.21813 0.017278,-1.58293 0.2244058,-3.03277 0.5487817,-3.84108 4.8248174,-33.97962 9.3087454,-65.61024 2.147541,-15.14925 4.410118,-31.09282 5.027949,-35.43015 1.230115,-8.63571 2.796663,-19.69284 8.679119,-61.25979 4.752323,-33.581109 4.63443,-31.968935 4.952909,-32.489993 0.27933,-0.485311 0.902053,-0.606046 1.491273,-0.640253 0.807184,-0.11258 22.60725,-0.23893 71.237557,-0.23029 65.49428,0.0108 70.45709,-0.119871 71.24913,0.339038 1.11493,0.454157 2.42101,2.064953 10.96578,11.763348 1.16304,1.320057 6.04946,6.823181 10.85873,12.229113 4.80928,5.40596 8.76226,9.988593 8.88088,10.299366 0.24845,0.42705 0.39018,0.989118 0.30245,2.033851 0.021,1.072434 -12.19987,84.09845 -12.56974,85.58889 -0.30225,1.45273 -1.04443,2.08554 -2.56402,2.13848 -1.99737,0.0696 -9.10602,0.17251 -68.79079,0.17251 -62.927582,0 -70.58374,0.0376 -71.029079,0.3496 -0.691234,0.48414 -0.860899,1.20854 -1.899042,8.10789 -0.501301,3.33159 -1.062912,7.0346 -1.248025,8.22894 -0.185124,1.19435 -1.111021,7.41748 -2.057572,13.82919 -0.946549,6.4117 -2.032693,13.76631 -2.413648,16.34355 -0.380955,2.57727 -1.441345,9.75126 -2.35642,15.9422 -0.915073,6.19095 -1.741498,11.33403 -1.836501,11.42906 -0.09501,0.095 -8.292788,0.20033 -18.217299,0.23407 -16.949337,0.0575 -18.0538036,0.037 -18.196784,-0.33548 z M 161.59914,136.51489 c 0.46814,-0.12095 0.75534,-0.37546 0.91642,-0.88621 0.14652,-0.34835 0.89166,-3.99448 1.59393,-8.12729 0.70229,-4.13275 1.88032,-11.06289 2.61786,-15.40022 0.92016,-5.41113 1.3683,-8.21877 1.49975,-9.77718 0.29796,-1.7948 -0.78041,-2.73567 -1.69438,-3.751007 -3.12677,-3.469083 -10.03783,-10.721989 -11.8721,-12.419692 -0.46583,-0.414173 -0.84184,-0.37122 -1.2294,-0.399405 -3.73939,-0.100973 -20.25162,-0.166577 -42.88413,-0.164957 -29.250875,0.0023 -40.124028,0.0629 -42.953905,0.155507 -0.877226,0.09044 -0.914218,0.366738 -1.096243,0.615874 -0.408396,1.186608 -1.04884,5.666245 -3.752485,24.6456 -2.739925,19.23404 -3.275683,23.58641 -3.284662,24.79397 0.136042,0.7548 0.424473,0.92634 1.268262,0.98815 h 49.801433 c 38.64311,0 50.61075,-0.064 51.06965,-0.27296 z"
       id="path21"
       inkscape:connector-curvature="0"
       sodipodi:nodetypes="cscccscscsscscccscccccccccsssccscsccccsscscscscccccccscccccccsccscc" />
  </g>
</svg>
